<svg width="85" height="70" fill="none" xmlns="http://www.w3.org/2000/svg"><circle opacity=".1" cx="50" cy="35" r="35" fill="#2F80ED"/><path d="M35 57h-2v-9.8a1 1 0 1 0-2 0V57H5V37h8.32a1 1 0 1 0 0-2H4a1 1 0 0 0-1 1v21H1a1 1 0 0 0-1 1v2a5 5 0 0 0 5 5h26a5 5 0 0 0 5-5v-2a1 1 0 0 0-1-1zm-1 3a3 3 0 0 1-3 3h-2v-1a1 1 0 1 0-2 0v1H9v-1a1 1 0 1 0-2 0v1H5a3 3 0 0 1-3-3v-1h32v1zm18-49h2a1 1 0 1 0 0-2h-2a3 3 0 0 0-3 3v1h-1a1 1 0 1 0 0 2h1v3a1 1 0 1 0 2 0v-3h1a1 1 0 1 0 0-2h-1v-1a1 1 0 0 1 1-1z" fill="#868686"/><path d="M57 5H45a3 3 0 0 0-3 3v2a1 1 0 1 0 2 0V8a1 1 0 0 1 1-1h12a1 1 0 0 1 1 1v12a1 1 0 0 1-1 1H45a1 1 0 0 1-1-1v-6a1 1 0 1 0-2 0v6a3 3 0 0 0 3 3h12a3 3 0 0 0 3-3V8a3 3 0 0 0-3-3zM47 45a4 4 0 1 0 8 0 4 4 0 0 0-8 0zm6 0a2 2 0 1 1-4 0 2 2 0 0 1 4 0z" fill="#868686"/><path d="M57 36H45a3 3 0 0 0-3 3v12a3 3 0 0 0 3 3h12a3 3 0 0 0 3-3v-2a1 1 0 1 0-2 0v2a1 1 0 0 1-1 1H45a1 1 0 0 1-1-1V39a1 1 0 0 1 1-1h12a1 1 0 0 1 1 1v6a1 1 0 1 0 2 0v-6a3 3 0 0 0-3-3zM22.47 16.85a1 1 0 0 0 .98.04l6-3a1 1 0 0 0 0-1.78l-6-3A1 1 0 0 0 22 10v6a1 1 0 0 0 .47.85zM24 11.62L26.76 13 24 14.38v-2.76z" fill="#868686"/><path d="M25 22a9 9 0 1 0 0-18 9 9 0 0 0 0 18zm0-16a7 7 0 1 1 0 14 7 7 0 0 1 0-14zm10 20a1 1 0 0 0 .8-.4l3-4a1 1 0 0 0-1.6-1.2l-3 4A1 1 0 0 0 35 26zm2.2 3.6a1 1 0 0 0 1.4.2l4-3a1 1 0 0 0-1.2-1.6l-4 3a1 1 0 0 0-.2 1.4zm9.8 2.2a1 1 0 0 0-1.2-.8l-5 1a1.005 1.005 0 1 0 .2 2h.2l5-1a1 1 0 0 0 .8-1.2zM1 32h12a1 1 0 0 0 1-1V15a1 1 0 0 0-1-1H1a1 1 0 0 0-1 1v16a1 1 0 0 0 1 1zm1-16h10v14H2V16z" fill="#868686"/><path d="M9 18H7a1 1 0 1 0 0 2h2a1 1 0 1 0 0-2zm0 4H5a1 1 0 1 0 0 2h4a1 1 0 1 0 0-2zm0 4H5a1 1 0 1 0 0 2h4a1 1 0 1 0 0-2zm25.12 5.7a1.004 1.004 0 0 0-1.74 1l4.41 7.63-16 6h-.15l-2.6 1.5-1.73 1a2 2 0 0 1-2.73-.73l-2-3.46a2 2 0 0 1 .75-2.64l3.46-2 2.5 4.33a1 1 0 0 0 .87.5 1 1 0 0 0 .87-1.5l-2.58-4.46L30 28.52l.41.71a1.003 1.003 0 1 0 1.74-1l-1-1.73a1 1 0 0 0-.69-.48 1 1 0 0 0-.82.21l-14 11.54-4.26 2.46a4 4 0 0 0-1.84 4.53l-1 .57a3 3 0 0 0 1.5 5.6 3.059 3.059 0 0 0 1.5-.4l1-.57a3.879 3.879 0 0 0 2.8 1.18 3.94 3.94 0 0 0 2-.54l.87-.5 2 3.47a3 3 0 0 0 4.09 1.1 3 3 0 0 0 1.1-4.1l-1.82-3.17 15-5.63a1 1 0 0 0 .52-1.43l-4.98-8.64zM10.5 48.79a1 1 0 0 1-.76.1 1 1 0 0 1-.61-.46 1 1 0 0 1 .37-1.37l.87-.5 1 1.73-.87.5zm13.16 2.8a1 1 0 0 1 .1.76 1 1 0 0 1-.47.6 1 1 0 0 1-1.36-.36l-2-3.47 1.66-.95h.08l1.99 3.42z" fill="#868686"/></svg>